#!OML:ASF E:/inclinewalkrobotboard/Project1/Captureday1/Session1/subject1.ASF
:FULLY-SPECIFIED
:DEGREES
151
root 0 0 0 -1.7134053668018556 -3.0631604454774335 -3.81367330844626
lowerback 10.042858947677669 1.118495457958619 1.7321336937897727
upperback 0.056685296440566246 1.75318151207092 1.2479038711299526
thorax -5.521084643512863 0.8236323028533732 0.06816102796180565
lowerneck -14.121240511530953 -2.9641409736680653 -1.054561949000233
upperneck 16.57477778297813 -4.02069267961742 1.3823096456613713
head 7.6854346735244405 -1.887533786513706 0.21059966910474648
rclavicle -1.8473793722492735E-16 -8.894969415974565E-17
rhumerus -19.76078085073883 -7.414904135633565 -67.51542328324634
rradius 60.20884276746268
rwrist -7.977591894798255
rhand -13.403629783455589 -8.577447416420092
rfingers 7.125019999999865
rthumb 12.729163763626167 -37.82316837962085
lclavicle -8.181499774995269E-16 -3.8870748286191693E-16
lhumerus -39.696589014467285 0.2599388927941469 83.29054472063687
lradius 38.36302257764615
lwrist 2.664310399633214
lhand -19.354182333598608 0.6113840250612839
lfingers 7.125019999999877
lthumb 6.861897251244383 30.11815807888614
rfemur -9.004270188484702 2.0286276679762 14.146344861358884
rtibia 27.7378924713297
rfoot -1.3902823276094343 -3.2503294974261725
rtoes 3.3758558506515017
lfemur 0.469347974333715 -4.233790511267359 -19.98950666871778
ltibia 19.064783983865517
lfoot -18.514456487994824 4.720110357964344
ltoes -23.83522869144027
152
root 0 0 0 -1.993447952337025 -0.7866712213695701 -0.12499998509114985
lowerback 10.055361091095765 -0.38685170045297035 -2.1672870623791463
upperback 0.20003057928949114 -0.7006753106111461 1.1929170038906158
thorax -5.4024327110299515 -0.29799419638303626 2.5582421025379016
lowerneck -14.28785079072655 -2.581570976977627 -1.3894606090973431
upperneck 16.893555398228028 -3.3442873150242827 1.1190058346651992
head 7.78974385340093 -1.617493796226323 0.250123030183816
rclavicle -2.0319326686680118E-16 -9.98374955058477E-17
rhumerus -19.960619287871243 -7.648458729710263 -67.73152117938429
rradius 59.51343119997937
rwrist -7.726611070953702
rhand -13.500067850435347 -7.906467892325351
rfingers 7.12501999999987
rthumb 12.635246642340132 -37.163558610159654
lclavicle -7.687997965251317E-16 -3.6608703998795344E-16
lhumerus -39.37941639992972 0.2155166628296592 83.26536335174625
lradius 37.99504572765963
lwrist 2.8042537035094135
lhand -19.662876999366112 1.548986342763147
lfingers 7.125019999999882
lthumb 6.5708465578368545 31.06620199751906
rfemur -9.808240181579416 1.7817801955489252 13.694536020741129
rtibia 28.803080045078616
rfoot -0.640786284436639 -3.2617502464383255
rtoes 3.6600153055369007
lfemur 1.2793763789483776 -4.242729545344638 -20.638412220295464
ltibia 18.71751635379802
lfoot -18.387686187798998 4.361940379139661
ltoes -22.59106464208801
153
root 0 0 0 -2.1402568375880127 -0.3645278285610667 0.6659079173311926
lowerback 10.107876690289993 -0.7145608926321014 -2.9058890882894857
upperback 0.26435625573945626 -1.2247716305101162 1.230976316445582
thorax -5.351318453429353 -0.5362459004094765 3.089184323507455
lowerneck -14.627499819231835 -2.528821080944834 -1.5576297852426266
upperneck 17.25653212553388 -3.2152361034290418 0.9983074144106165
head 7.96665672900007 -1.5707336459820092 0.24295596306831374
rclavicle -1.987599202950574E-16 -1.0577930044396857E-16
rhumerus -19.97802600048009 -7.6564899218446705 -67.7340248007961
rradius 59.50695133489529
rwrist -7.711921943822548
rhand -13.498942530926486 -7.90325103838528
rfingers 7.12501999999987
rthumb 12.636168464242742 -37.16268173208656
lclavicle -7.457682237826543E-16 -3.701802774963661E-16
lhumerus -39.36045818457608 0.19538591480541034 83.26683594265211
lradius 38.01718380967192
lwrist 2.8142898062897825
lhand -19.66560404420333 1.552344939823815
lfingers 7.125019999999882
lthumb 6.568932024518392 31.069759844213987
rfemur -10.157818303482983 1.6501226667975166 13.475199446112981
rtibia 29.43780200935661
rfoot -0.190398855573235 -3.231146957823349
rtoes 3.88988634942375
lfemur 1.2002040635529783 -4.121377379266636 -20.793954333193795
ltibia 19.40067559097804
lfoot -17.870221203328455 3.9028269837994243
ltoes -21.620038899234146
154
root 0 0 0 -2.212780941245468 -0.3008577224697171 0.8323069897825515
lowerback 10.143787624484062 -0.7911917260166739 -3.017963725506903
upperback 0.29631285300162197 -1.3413966998894975 1.2653247857130177
thorax -5.328224262368308 -0.588031612265819 3.2039799368511783
lowerneck -14.848060923013051 -2.529810487974695 -1.6393817444642707
upperneck 17.50446248581796 -3.1916192251642665 0.9372017043174963
head 8.076882214609064 -1.5650904286533265 0.2323456581119681
rclavicle -1.8772386168918856E-16 -1.0303434489737228E-16
rhumerus -19.897460052696694 -7.555290773225589 -67.63204421535698
rradius 59.82307466934385
rwrist -7.817947863689679
rhand -13.452694098922148 -8.213003624837127
rfingers 7.125019999999868
rthumb 12.680636421407053 -37.46569857787069
lclavicle -7.361324940046102E-16 -3.69806384651588E-16
lhumerus -39.39452586322902 0.18343133676906542 83.27076608245397
lradius 38.09599065609272
lwrist 2.8029178561506716
lhand -19.620966504174817 1.4124687949509305
lfingers 7.12501999999988
lthumb 6.611696822205198 30.926069614202454
rfemur -10.470799716333044 1.680909423658452 13.7702764309668
rtibia 30.162346571576066
rfoot -0.16197914239462907 -3.315346763116181
rtoes 4.072322747817423
lfemur 0.4307922967918669 -3.8741651233798384 -20.63719684488389
ltibia 21.006158250600862
lfoot -16.899338724596802 3.2329578252109004
ltoes -20.51724676131789
